<svg xmlns="http://www.w3.org/2000/svg" width="1920" height="322" viewBox="0 0 1920 322"><defs><style>.a{fill:#e5f5f9;opacity:0.75;}</style></defs><path class="a" d="M1920-1.854,1755.376,57.918a199.871,199.871,0,0,1-49.65,6.008H1309.2q-4.195,0-8.379-.16L966.472,14.844c-20.483-.784-41,1.325-58.755,6.039L501.275,128.8c-36.035,9.568-81.33,7.946-113.637-4.069L0-3.4V196.8s301.937,92.182,346.612,104.571,82.642,27.915,154.663,6.853,363.033-98.359,396.617-106.2,41.963-11.479,88.2-5.223c36.48,4.936,206.264,29.842,273.344,38.484,17.559,2.262,49.761,3.683,49.761,3.683s363.1-.12,387.435,0a136.163,136.163,0,0,0,45.239-8.124L1920,168.568Z" transform="translate(0 3.404)"/></svg>