<svg xmlns="http://www.w3.org/2000/svg" xmlns:xlink="http://www.w3.org/1999/xlink" width="2540" height="420" viewBox="0 0 2540 420">
  <defs>
    <clipPath id="clip-path">
      <rect id="Rectangle_5741" data-name="Rectangle 5741" width="2540" height="420" fill="#fff"/>
    </clipPath>
    <linearGradient id="linear-gradient" x1="0.751" y1="0.305" x2="0.749" y2="-0.168" gradientUnits="objectBoundingBox">
      <stop offset="0" stop-color="#84afff"/>
      <stop offset="1" stop-color="#4494d0" stop-opacity="0.702"/>
    </linearGradient>
    <linearGradient id="linear-gradient-2" x1="0.6" y1="0.107" x2="0.582" y2="1.018" gradientUnits="objectBoundingBox">
      <stop offset="0" stop-color="#68a1ef" stop-opacity="0.302"/>
      <stop offset="1" stop-color="#1b74c1" stop-opacity="0.702"/>
    </linearGradient>
  </defs>
  <g id="Elements_Wave_lBlue" data-name="Elements Wave lBlue" clip-path="url(#clip-path)">
    <path id="Curve_Bottom01" d="M622.6,0,348.323,92.424a186.939,186.939,0,0,1-59.289,9.43H-294.519a194.561,194.561,0,0,1-28.734-2.123l-396.139-59.25a193.721,193.721,0,0,0-75.682,3.665l-683.166,174.309c-34.292,8.75-72.446,7.537-105.357-3.349L-1926,101.854l7.939,598.879H622.6Z" transform="translate(1917.401 58)" opacity="0.398" fill="url(#linear-gradient)"/>
    <path id="bg" d="M620.661,66.9l-274.8,112.225a161.55,161.55,0,0,1-60.809,11.681H-577.09a165.839,165.839,0,0,1-33.649-3.433L-1461.369,10.84c-34.421-7.143-71.037-3.041-101.58,11.38L-1920,190.808V837.941H620.661Z" transform="translate(1919.338 50.527)" fill="url(#linear-gradient-2)"/>
  </g>
</svg>
