<?xml version="1.0" encoding="utf-8"?>
<!-- Generator: Adobe Illustrator 19.2.1, SVG Export Plug-In . SVG Version: 6.00 Build 0)  -->
<svg version="1.1" xmlns="http://www.w3.org/2000/svg" xmlns:xlink="http://www.w3.org/1999/xlink" x="0px" y="0px"
	 viewBox="0 0 512 512" enable-background="new 0 0 512 512" xml:space="preserve" width="20px" height="20px">
<path d="M32,480c0,0,46.4-5.6,96-16c22.3-4.7,46.9-14,70.7-37.7c56.9-56.9,0.2-112.9,0.2-112.9s-56.7-56.9-113.3-0.2
	c-23.4,23.4-20.1,57.1-19.7,89.8C66.7,462.7,32,480,32,480z M470.7,64L448,41.3c-12.4-12.4-32.8-12.4-45.3,0L204.3,239.8
	c11.5,5.8,20.8,12.2,27.7,17.6c5.3,4.2,9.2,7.7,11.3,9.8l0,0c0.3,0.3,0.6,0.6,0.8,0.8c0.2,0.2,0.5,0.5,0.8,0.8l0,0
	c2.1,2.1,5.6,5.9,9.7,11.1c5.4,6.8,11.8,16.2,17.6,27.6l23.5-23.5l174.9-174.9C483.1,96.8,483.1,76.4,470.7,64z M448,86.6
	L277.4,257.3c-4.8-5.8-8.6-9.9-10.6-11.9c-2.3-2.3-6.3-6.1-12-10.7L425.4,64h0.1L448,86.6L448,86.6z"/>
</svg>
