<svg xmlns="http://www.w3.org/2000/svg" xmlns:xlink="http://www.w3.org/1999/xlink" width="1920" height="209.377" viewBox="0 0 1920 209.377"><defs><style>.a{fill:#5392e4;}.b{clip-path:url(#a);}.c{opacity:0.598;fill:url(#b);}.d{opacity:0.154;fill:url(#c);}.e,.g,.h{fill:none;stroke-linecap:round;}.e{stroke:#0c1121;stroke-width:14.435px;}.e,.g{stroke-linejoin:round;}.f{fill:#0c1121;}.g{stroke:#14254c;stroke-width:30px;}.h{stroke:#0c1b38;stroke-miterlimit:10;stroke-width:24.058px;}.i{fill:#22b573;}.j{fill:#0c1b38;}.k{fill:#e9ac6a;}.l{fill:#e26841;}.m{fill:#fff;}.n{fill:#4f5d6c;}</style><clipPath id="a"><path class="a" d="M0-.193H1920v96H0Z" transform="translate(0 0.193)"/></clipPath><linearGradient id="b" x1="0.512" y1="0.225" x2="0.483" y2="1.824" gradientUnits="objectBoundingBox"><stop offset="0" stop-color="#68a1ef" stop-opacity="0.306"/><stop offset="1" stop-color="#1b74c1" stop-opacity="0.698"/></linearGradient><linearGradient id="c" x1="0.581" y1="0.251" x2="0.482" y2="1.943" gradientUnits="objectBoundingBox"><stop offset="0" stop-color="#84afff"/><stop offset="1" stop-color="#4494d0" stop-opacity="0.698"/></linearGradient></defs><g transform="translate(0 -2468.623)"><g transform="translate(0 2582)"><g class="b"><path class="c" d="M-7416.565-8790.02c-18.376.007-21.208,2.684-70.16-9.886S-7795-8878.332-7795-8878.332v226.054h2041v-247.143s-110.1,2.972-262.556,45.553-264.5,92.818-347.253,124.773-90.889,16.023-142.46,5.8-391.943-49.988-424.336-56.177-45.882-10.511-78.664-10.545S-7398.188-8790.025-7416.565-8790.02Z" transform="translate(7674.001 8748.278)"/><path class="d" d="M-7792-8570.421s241.322-179.712,282-212,69.826-29.293,96-30,419,0,419,0,32.148-2.659,70,10,346,103,346,103,37.567,11.724,76-9,158.329-89.009,197-108,54.464-14.72,121-8,313,28,313,28v246H-7792Z" transform="translate(7792 8780.421)"/></g></g><g transform="translate(1110.447 2468.623)"><path class="e" d="M1386.317,2064.709q3.85,15.555,7.7,31.111" transform="translate(-1366.307 -1914.181)"/><path class="f" d="M1397.186,2100.724a6.306,6.306,0,0,1-6.375,6.674l-2.4-.03-21.572-.272a3.893,3.893,0,0,1-.547-7.74l11.475-2,11.85-2.435a6.3,6.3,0,0,1,7.564,5.807Z" transform="translate(-1363 -1918.446)"/><path class="g" d="M1453.814,2047.724c-22.487-30.016-50.322-39.247-61.84-30.921-12.394,8.96-5.69,38.1-5.23,40.015" transform="translate(-1366.053 -1906.972)"/><path class="h" d="M1452.259,1969.549c-23-2.866-42.023,15.019-41.833,34.1.161,16.158,14.078,31.624,33.194,33.649" transform="translate(-1369.726 -1900.641)"/><path class="h" d="M1484.075,1969.549c23-2.866,42.023,15.019,41.833,34.1-.16,16.158-14.078,31.624-33.194,33.649" transform="translate(-1380.172 -1900.641)"/><path d="M1499.492,2011.255l.992-27.23a28.377,28.377,0,0,0-32.272-29.288h0a28.4,28.4,0,0,0-23,36.061l7.527,26.186a23.926,23.926,0,0,0,25.451,17.287h0A23.926,23.926,0,0,0,1499.492,2011.255Z" transform="translate(-1374.499 -1898.541)"/><path class="f" d="M1435.824,2086.05a6.306,6.306,0,0,0-9.026,1.922l-1.232,2.054-11.094,18.5a3.893,3.893,0,0,0,6.3,4.529l7.729-8.715,8.293-8.806a6.306,6.306,0,0,0-.971-9.487Z" transform="translate(-1370.221 -1917.046)"/><path class="e" d="M1489.065,2088.231q-9.541,1.052-19.519,1.87c-12.18.99-23.954,1.62-35.286,1.953" transform="translate(-1373.107 -1917.517)"/><path class="g" d="M1489.539,2048.661a121.281,121.281,0,0,1,20.421,1.029c11.746,1.591,17.74,2.292,22.508,6.821,4.544,4.316,8.15,11.99,6.6,17.33-4.82,16.555-59.926,12.938-64.853,12.583" transform="translate(-1378.773 -1911.895)"/><rect class="i" width="45.742" height="15.291" transform="matrix(-0.988, 0.157, -0.157, -0.988, 127.802, 127.592)"/><g transform="translate(79.233)"><g transform="translate(24.39)"><path class="i" d="M1493.41,1934.556c6.251-2.468,10.6-1.981,13.417-2.6,5.183-1.137,11.426-7.6,15.862-31.262l-11.04-3.142c-.82,18.584-5.608,25.1-10.182,27.392-2.081,1.044-4.91,1.788-8.638,4.455a24.4,24.4,0,0,0-8.034,10.336A31.179,31.179,0,0,1,1493.41,1934.556Z" transform="translate(-1483.897 -1890.473)"/><path class="i" d="M1505.9,1893.056l-9.653-3.753c1.6,13.072-1.359,20.443-4.454,24.787-2.137,3-4.814,5.793-6.813,11a21.305,21.305,0,0,0-.554,12.466,31.587,31.587,0,0,1,7.195-11.474c3.586-3.6,6.125-5.031,8.156-6.794C1503.6,1915.964,1507.365,1909.065,1505.9,1893.056Z" transform="translate(-1483.748 -1889.303)"/></g><g transform="translate(0 35.671)"><path class="j" d="M1473.963,1930.878l-2.364.078a16.828,16.828,0,0,0-16.189,18.472l1.782,18.052a16.827,16.827,0,0,0,17.3,15.166h0a16.829,16.829,0,0,0,16.261-16.28l.582-18.13A16.828,16.828,0,0,0,1473.963,1930.878Z" transform="translate(-1455.328 -1930.869)"/><rect class="i" width="36.023" height="8.961" transform="matrix(-0.999, 0.033, -0.033, -0.999, 36.372, 26.726)"/><rect class="k" width="31.398" height="9.205" rx="4.603" transform="matrix(-0.999, 0.033, -0.033, -0.999, 33.96, 31.583)"/><path class="l" d="M1473.344,1967.1l3.994-.133-.255-7.677Z" transform="translate(-1457.883 -1934.9)"/><g transform="translate(5.433 26.989)"><rect class="m" width="4.83" height="2.566" rx="1.283" transform="translate(4.913 3.217) rotate(178.1)"/><rect class="m" width="4.83" height="2.566" rx="1.283" transform="translate(24.588 2.565) rotate(178.1)"/></g><circle cx="1.3" cy="1.3" r="1.3" transform="translate(6.713 28.782)"/><circle cx="1.3" cy="1.3" r="1.3" transform="translate(26.388 28.129)"/></g></g><g transform="translate(53.117 100.279)"><rect class="n" width="87.88" height="63.637"/><rect width="87.88" height="5.697" transform="translate(0 62.133)"/><path class="m" d="M1481.74,2044.069l-3.484-4.622-.5,4.219-4.621,3.484,4.219.5,3.483,4.621.5-4.219,4.622-3.483Zm-2.288,2.565a.779.779,0,1,1,.866-.68A.779.779,0,0,1,1479.452,2046.634Z" transform="translate(-1435.605 -2014.144)"/></g></g></g></svg>