<svg xmlns="http://www.w3.org/2000/svg" xmlns:xlink="http://www.w3.org/1999/xlink" width="32" height="32.254" viewBox="0 0 32 32.254"><defs><style>.a{fill:#a3d8f1;}.b{fill:none;}.c{fill:#e26841;}.d{clip-path:url(#a);}.e{clip-path:url(#b);}.f{fill:#31475c;}.g{fill:#14254c;}.h{clip-path:url(#d);}.i{fill:#e9ac6a;}.j{fill:#dc7f1b;}.k{fill:#fff;}.l{fill:#231f20;}</style><clipPath id="a"><ellipse class="a" cx="16" cy="16.127" rx="16" ry="16.127"/></clipPath><clipPath id="b"><path class="b" d="M0,16.435A16.365,16.365,0,0,0,16.3,32.87h0a16.366,16.366,0,0,0,16.3-16.435h0A16.366,16.366,0,0,0,16.3,0h0A16.365,16.365,0,0,0,0,16.435Z" transform="translate(0 0)"/></clipPath><clipPath id="d"><path class="b" d="M0,6.1a6.077,6.077,0,0,0,6.051,6.1h0A6.077,6.077,0,0,0,12.1,6.1h0A6.077,6.077,0,0,0,6.051,0h0A6.077,6.077,0,0,0,0,6.1Z" transform="translate(0 0)"/></clipPath></defs><ellipse class="a" cx="16" cy="16.127" rx="16" ry="16.127"/><g transform="translate(0 0)"><g transform="translate(16.376 1.466)"><path class="c" d="M0,5.021l5.713.369A2.994,2.994,0,0,0,8.646,3.6,2.989,2.989,0,0,1,12.338,1.95l2.931.989L15.481,1.2,11.551.109A2.991,2.991,0,0,0,7.963,1.927l-.2.526a3,3,0,0,1-2.427,1.9Z" transform="translate(0 2.807)"/><path class="c" d="M0,8.617,4.591,7.026A3.01,3.01,0,0,0,6.456,5.137l.429-1.279A3,3,0,0,1,9.819,1.807l3.61.116L13.533,0,8.639.1A3,3,0,0,0,5.779,2.45L5.366,4.277A3.021,3.021,0,0,1,3.991,6.192Z" transform="translate(0.463)"/></g><g class="d"><g transform="translate(-0.472 -0.084)"><g transform="translate(0 0.327)"><g transform="translate(0 0)"><path class="b" d="M0,16.435A16.365,16.365,0,0,0,16.3,32.87h0a16.366,16.366,0,0,0,16.3-16.435h0A16.366,16.366,0,0,0,16.3,0h0A16.365,16.365,0,0,0,0,16.435Z" transform="translate(0 0)"/><g class="e"><path class="c" d="M17,31.364l-14.094,1.7L.124,11.521A9.932,9.932,0,0,1,9.877,0,9.933,9.933,0,0,1,19.63,11.521Z" transform="translate(6.732 20.966)"/></g></g><g transform="translate(15.154 16.485)"><path class="f" d="M0,8.034l7.353,6.489,6.587-3.554L8.948,6.942A3.062,3.062,0,0,1,7.813,4.559V0H0Z" transform="translate(0 0)"/></g><g transform="translate(0.324 0)"><path class="b" d="M0,16.435A16.365,16.365,0,0,0,16.3,32.87h0a16.366,16.366,0,0,0,16.3-16.435h0A16.366,16.366,0,0,0,16.3,0h0A16.365,16.365,0,0,0,0,16.435Z" transform="translate(0 0)"/><g class="e" transform="translate(0)"><path class="f" d="M13.941,8.034,6.587,14.523,0,10.97,4.992,6.942A3.062,3.062,0,0,0,6.128,4.559V0h7.813Z" transform="translate(3.187 16.485)"/></g></g><g transform="translate(9.562 5.825)"><path class="g" d="M10.417,0H7.66A7.692,7.692,0,0,0,0,7.725V15.6a3.077,3.077,0,0,0,3.064,3.09h7.353a3.077,3.077,0,0,0,3.064-3.09V3.09A3.077,3.077,0,0,0,10.417,0" transform="translate(0 0)"/></g><g transform="translate(10.251 10.151)"><path class="f" d="M12.1,6.1A6.051,6.051,0,1,1,6.051,0,6.077,6.077,0,0,1,12.1,6.1" transform="translate(0 0)"/></g></g><g transform="translate(10.251 10.477)"><path class="b" d="M0,6.1a6.077,6.077,0,0,0,6.051,6.1h0A6.077,6.077,0,0,0,12.1,6.1h0A6.077,6.077,0,0,0,6.051,0h0A6.077,6.077,0,0,0,0,6.1Z" transform="translate(0 0)"/><g class="h" transform="translate(0 0)"><path class="i" d="M0,16.374V5.325A5.3,5.3,0,0,1,5.28,0h0a5.3,5.3,0,0,1,5.28,5.325V17.236Z" transform="translate(0.771 -2.18)"/></g></g><g transform="translate(0 0)"><path class="b" d="M0,16.435A16.365,16.365,0,0,0,16.3,32.87h0a16.366,16.366,0,0,0,16.3-16.435h0A16.366,16.366,0,0,0,16.3,0h0A16.365,16.365,0,0,0,0,16.435Z" transform="translate(0 0)"/><g class="e"><path class="j" d="M0,4.79H2.757V0Z" transform="translate(13.775 13.258)"/></g><g transform="translate(16.67 18.196)"><path class="k" d="M0,2.015a3.422,3.422,0,0,0,2.013-.508A3.467,3.467,0,0,0,3.187.322L2.665,0a2.865,2.865,0,0,1-.97.978A2.833,2.833,0,0,1,.031,1.4Z" transform="translate(0 0)"/></g><g transform="translate(19.073 13.728)"><path class="l" d="M1.136.535H0A.532.532,0,0,1,.53,0H.606a.532.532,0,0,1,.53.535" transform="translate(0 0)"/></g><g transform="translate(12.332 13.728)"><path class="l" d="M1.136.535H0A.532.532,0,0,1,.53,0H.606a.532.532,0,0,1,.53.535" transform="translate(0 0)"/></g><g transform="translate(10.251 12.13)"><path class="g" d="M0,.805H12.562V0H0Z" transform="translate(0 0)"/></g><g transform="translate(10.251 14.9)"><path class="g" d="M0,.805H12.562V0H0Z" transform="translate(0 0)"/></g><g transform="translate(10.251 20.511)"><path class="g" d="M0,.805H11.8V0H0Z" transform="translate(0 0)"/></g><g transform="translate(10.251 17.742)"><path class="g" d="M0,.805H12.562V0H0Z" transform="translate(0 0)"/></g></g></g></g></g></svg>