<svg xmlns="http://www.w3.org/2000/svg" xmlns:xlink="http://www.w3.org/1999/xlink" width="1920" height="200.218" viewBox="0 0 1920 200.218"><defs><style>.a{fill:#5392e4;}.b{clip-path:url(#a);}.c{opacity:0.598;fill:url(#b);}.d{opacity:0.154;fill:url(#c);}.e,.i{fill:#14254c;}.f,.h{fill:#f27043;}.g{fill:#0c1b38;}.h,.i,.j,.k,.l{fill-rule:evenodd;}.j{fill:#31475c;}.k,.o{fill:#fab16a;}.l{fill:#dc7f1b;}.m{fill:#fff;}.n{fill:#4f5d6c;}</style><clipPath id="a"><path class="a" d="M0-.193H1920v96H0Z" transform="translate(0 0.193)"/></clipPath><linearGradient id="b" x1="0.512" y1="0.225" x2="0.483" y2="1.824" gradientUnits="objectBoundingBox"><stop offset="0" stop-color="#68a1ef" stop-opacity="0.306"/><stop offset="1" stop-color="#1b74c1" stop-opacity="0.698"/></linearGradient><linearGradient id="c" x1="0.581" y1="0.251" x2="0.482" y2="1.943" gradientUnits="objectBoundingBox"><stop offset="0" stop-color="#84afff"/><stop offset="1" stop-color="#4494d0" stop-opacity="0.698"/></linearGradient></defs><g transform="translate(0 -2504.782)"><g transform="translate(0 2609)"><g class="b"><path class="c" d="M-7416.565-8790.02c-18.376.007-21.208,2.684-70.16-9.886S-7795-8878.332-7795-8878.332v226.054h2041v-247.143s-110.1,2.972-262.556,45.553-264.5,92.818-347.253,124.773-90.889,16.023-142.46,5.8-391.943-49.988-424.336-56.177-45.882-10.511-78.664-10.545S-7398.188-8790.025-7416.565-8790.02Z" transform="translate(7674.001 8748.278)"/><path class="d" d="M-7792-8570.421s241.322-179.712,282-212,69.826-29.293,96-30,419,0,419,0,32.148-2.659,70,10,346,103,346,103,37.567,11.724,76-9,158.329-89.009,197-108,54.464-14.72,121-8,313,28,313,28v246H-7792Z" transform="translate(7792 8780.421)"/></g></g><g transform="translate(12 -495)"><g transform="translate(994.2 2840.182)"><path class="e" d="M247.533,399.924a9.625,9.625,0,0,1-7.8-3.986,64.435,64.435,0,0,1-12.043-31.344,57,57,0,0,1,6.042-32.183c9.441-18,26.225-25.386,32.981-27.736a9.607,9.607,0,1,1,6.252,18.169c-4.616,1.594-16.029,6.588-22.239,18.462-6.84,13.05-5.035,30.043,4.574,43.345a9.643,9.643,0,0,1-2.14,13.427A9.486,9.486,0,0,1,247.533,399.924Z" transform="translate(-84.498 -76.763)"/><path d="M194.2,532.142l1.594-20.477a1.677,1.677,0,0,1,.8-1.3L245.053,480.2a1.855,1.855,0,0,1,.671-.252l12.588-1.762a1.671,1.671,0,0,1,1.888,1.594l.294,13.847a.818.818,0,0,1-.042.336l-7.637,39.233a1.661,1.661,0,0,1-1.636,1.343l-55.3-.671A1.6,1.6,0,0,1,194.2,532.142Z" transform="translate(-65.234 -194.763)"/><path d="M342.191,530.573l3.4-54.171a1.637,1.637,0,0,1,1.553-1.553l16.574-1.259a1.52,1.52,0,0,1,1.3.5l33.358,33.358a1.612,1.612,0,0,1,.462.965l2.937,21.735a1.657,1.657,0,0,1-1.636,1.888l-56.269.336A1.685,1.685,0,0,1,342.191,530.573Z" transform="translate(-151.127 -192.103)"/><path class="f" d="M337.879,374.264l-37.093,4.448-7.343-56.227a26.006,26.006,0,0,1,25.68-30.085h0a26.009,26.009,0,0,1,25.68,30.085Z" transform="translate(-122.646 -71.944)"/><path class="e" d="M301.9,453.574,345.413,449l-1.8,15.4a20.143,20.143,0,0,1-39.9.8Z" transform="translate(-125.746 -167.834)"/><g transform="translate(157.27 287.662)"><path class="e" d="M402.833,490.084l-14.686,13.259a1.384,1.384,0,0,1-2.1-.252l-20.56-30.715a1.409,1.409,0,0,1,.755-2.1l10.616-3.357a1.423,1.423,0,0,1,1.3.252l24.631,20.812A1.4,1.4,0,0,1,402.833,490.084Z" transform="translate(-315.791 -466.865)"/><path class="e" d="M258.623,502.3,247.966,495a1.393,1.393,0,0,1-.042-2.266L273.645,473.6a1.34,1.34,0,0,1,1.469-.126l8.812,4.658a1.4,1.4,0,0,1,.294,2.266l-23.875,21.777A1.448,1.448,0,0,1,258.623,502.3Z" transform="translate(-247.362 -470.608)"/><path class="e" d="M287.9,508.265l16.868-27.484L326.21,479.4a1.371,1.371,0,0,1,1.427,1.049l8.014,33.9Z" transform="translate(-270.89 -474.137)"/></g><path class="g" d="M397.772,385.534a9.453,9.453,0,0,1-6.5-2.56,9.619,9.619,0,0,1-.545-13.6c3.273-3.567,10.952-13.3,10.91-26.687a38.039,38.039,0,0,0-6.42-20.812,46.09,46.09,0,0,0-17.707-15.651,9.617,9.617,0,1,1,8.686-17.162,65.335,65.335,0,0,1,25.092,22.239,57.722,57.722,0,0,1,9.567,31.3c.042,20.183-11.2,34.491-16.029,39.736A9.374,9.374,0,0,1,397.772,385.534Z" transform="translate(-168.566 -67.408)"/><path d="M293.8,272.893l-14.1,14.141,12.085,4.825,14.938-15.315V257.2H293.8Z" transform="translate(-114.861 -49.514)"/><g transform="translate(187.414 202.399)"><path d="M333.5,265.58l19.344,16.952,23.372-9.273-13.134-10.532a7.98,7.98,0,0,1-2.979-6.21V244.6H333.5Z" transform="translate(-333.5 -244.6)"/></g><g transform="translate(178.686 159.6)"><path class="h" d="M381.7,164.335c7.091-3.651,10.784-7.93,12.84-11.245,2.392-3.86,3.189-7.427,6.84-8.938,2.266-.965,3.692-.336,8.308-.378a51.584,51.584,0,0,0,9.987-1.175c.21,1.678.42,3.315.671,4.993a23.948,23.948,0,0,1-9.105,1.175c-3.986-.252-5.539-1.385-7.889-.545-3.189,1.133-3.9,4.49-5.79,7.385C395.421,158.839,391.141,162.531,381.7,164.335Z" transform="translate(-352.747 -142.6)"/><path class="h" d="M380.6,176.852c7.972-.294,13.134-2.56,16.406-4.742,3.567-2.308,5.623-4.616,10.029-5.2,3.231-.42,4.658.545,8.56.21a22.362,22.362,0,0,0,8.434-2.518c.336,1.8.713,3.609,1.049,5.413a23.49,23.49,0,0,1-8.014,1.846c-4.532.252-6.294-1.007-9.987-.42-3.9.629-5.539,2.434-8.392,4.2C395.37,177.734,389.915,179.244,380.6,176.852Z" transform="translate(-352.109 -155.369)"/><path class="i" d="M340.184,174.8h-7.259A20.209,20.209,0,0,0,312.7,195.025v15.861a12.84,12.84,0,0,0,12.84,12.84h9.9a12.84,12.84,0,0,0,12.84-12.84V182.856a8.149,8.149,0,0,0-8.1-8.056" transform="translate(-312.7 -161.289)"/><path class="j" d="M348.658,217.629A16.029,16.029,0,1,1,332.629,201.6a16,16,0,0,1,16.029,16.029" transform="translate(-314.964 -176.844)"/><path class="k" d="M349.578,209.824v-.168a15.979,15.979,0,0,0-27.778.042v15.777a15.979,15.979,0,0,0,27.778.042Z" transform="translate(-317.982 -176.844)"/><path class="l" d="M339.1,231.546h7.259V219Z" transform="translate(-328.023 -186.942)"/><g transform="translate(1.678 29.288)"><path class="e" d="M316.7,213.953h33.232V212.4H316.7Z" transform="translate(-316.7 -212.4)"/><path class="e" d="M316.7,231.294h33.232V229.7H316.7Z" transform="translate(-316.7 -222.441)"/><path class="e" d="M316.7,265.82h31.218V264.1H316.7Z" transform="translate(-316.7 -242.407)"/><path class="e" d="M316.7,248.42h33.232V246.7H316.7Z" transform="translate(-316.7 -232.308)"/></g><g transform="translate(7.553 32.771)"><path class="m" d="M372.711,223.134h-1.636a1.2,1.2,0,0,1-1.175-1.175v-.084a1.2,1.2,0,0,1,1.175-1.175h1.636a1.2,1.2,0,0,1,1.175,1.175v.084A1.173,1.173,0,0,1,372.711,223.134Z" transform="translate(-353.452 -220.7)"/><path class="m" d="M333.511,223.134h-1.636a1.2,1.2,0,0,1-1.175-1.175v-.084a1.2,1.2,0,0,1,1.175-1.175h1.636a1.2,1.2,0,0,1,1.175,1.175v.084A1.173,1.173,0,0,1,333.511,223.134Z" transform="translate(-330.7 -220.7)"/><circle cx="1.217" cy="1.217" r="1.217" transform="translate(16.952 1.007)"/><circle cx="1.217" cy="1.217" r="1.217" transform="translate(0.797 1.007)"/></g></g><g transform="translate(147.258 278.929)"><path class="f" d="M279.886,498.3l-23.791-30.8L237.8,486.508l34.072,22.029Z" transform="translate(-237.8 -467.5)"/><path class="f" d="M313.9,533.274l3.9-5.665a6.626,6.626,0,0,1,6.462-2.811l8.182,1.175a1.421,1.421,0,0,1,.923,2.266l-.587.8a1.411,1.411,0,0,1-.839.545Z" transform="translate(-281.968 -500.713)"/><path class="f" d="M337.279,546.877l1.469-8.854a4.109,4.109,0,0,0-4.364-4.741l-15.022,1.133-.462,12,13.217,3.734A4.074,4.074,0,0,0,337.279,546.877Z" transform="translate(-284.87 -505.672)"/></g><g transform="translate(197.697 285.886)"><path class="f" d="M376.6,483.941,400.391,453.1l18.337,19.05-34.072,21.987Z" transform="translate(-364.798 -453.1)"/><path class="f" d="M373.562,518.974l-3.9-5.665A6.626,6.626,0,0,0,363.2,510.5l-8.182,1.175a1.421,1.421,0,0,0-.923,2.266l.587.8a1.412,1.412,0,0,0,.839.545Z" transform="translate(-351.564 -486.371)"/><path class="f" d="M350,532.577l-1.469-8.854a4.109,4.109,0,0,1,4.364-4.742l15.022,1.133.462,12-13.217,3.734A4.084,4.084,0,0,1,350,532.577Z" transform="translate(-348.474 -491.33)"/></g></g><g transform="translate(1101.342 3017.086)"><g transform="translate(19.257 101.814)"><rect class="n" width="87.88" height="63.637"/><rect width="87.88" height="5.697" transform="translate(0 62.133)"/><path class="m" d="M1481.74,2044.069l-3.484-4.622-.5,4.219-4.621,3.484,4.219.5,3.483,4.621.5-4.219,4.622-3.483Zm-2.288,2.565a.779.779,0,1,1,.866-.68A.779.779,0,0,1,1479.452,2046.634Z" transform="translate(-1435.605 -2014.144)"/></g></g><g transform="translate(1102 3165.035)"><path class="o" d="M235.338,634.253,208.19,632.7l-72.129,1.385-52.2,1.133a1.81,1.81,0,0,0-1.762,1.8h0a1.8,1.8,0,0,0,1.72,1.8l52.2,1.553,72.129,1.636,27.148-1.469Z" transform="translate(-81.974 -624.308)"/><path d="M200.5,640.891v-4.532a1.272,1.272,0,0,1,1.3-1.259h2.979a1.272,1.272,0,0,1,1.259,1.3v4.532a1.272,1.272,0,0,1-1.3,1.259h-2.979A1.3,1.3,0,0,1,200.5,640.891Z" transform="translate(-150.693 -625.701)"/><path d="M81.8,641.009v-2.518a1.111,1.111,0,0,1,1.091-1.091h3.021A1.111,1.111,0,0,1,87,638.491v2.518a1.111,1.111,0,0,1-1.091,1.091H82.891A1.083,1.083,0,0,1,81.8,641.009Z" transform="translate(-81.8 -627.036)"/><path d="M497.8,642.106V631.7l-50.9,1.972v6.294Z" transform="translate(-293.703 -623.728)"/><path d="M438.6,638.17l.042-24.421a1.039,1.039,0,0,1,1.049-1.049h2.392a1.039,1.039,0,0,1,1.049,1.049l-.042,24.421a1.039,1.039,0,0,1-1.049,1.049h-2.392A1.039,1.039,0,0,1,438.6,638.17Z" transform="translate(-288.886 -612.7)"/></g></g></g></svg>