<?xml version="1.0" encoding="utf-8"?>
<!-- Generator: Adobe Illustrator 19.2.1, SVG Export Plug-In . SVG Version: 6.00 Build 0)  -->
<svg version="1.1" xmlns="http://www.w3.org/2000/svg" xmlns:xlink="http://www.w3.org/1999/xlink" x="0px" y="0px"
	 viewBox="0 0 512 512" enable-background="new 0 0 512 512" xml:space="preserve" width="20px" height="20px">
<path d="M206,256.6l160-160c-2.2-5.7-4.8-11.1-7.9-16.3c-24.2-40.8-60.1-66-107.8-75.9c-2.3-0.5-4.7-1-7.1-1.4
	C192-5.8,143.1,4.8,96.5,34.6C49.3,64.7,19.2,107.2,6.1,162c-13,54.8-5.2,106.4,23.4,154.6c14.2,23.8,31.3,43.2,51.4,58.4
	c3.8-25.2,13.4-52,36.4-75C148.6,268.6,181.3,258.7,206,256.6z M288,64c17.7,0,32,14.3,32,32s-14.3,32-32,32s-32-14.3-32-32
	S270.3,64,288,64z M192,32c17.7,0,32,14.3,32,32s-14.3,32-32,32s-32-14.3-32-32S174.3,32,192,32z M64,256c-17.7,0-32-14.3-32-32
	s14.3-32,32-32s32,14.3,32,32S81.7,256,64,256z M64,128c0-17.7,14.3-32,32-32s32,14.3,32,32s-14.3,32-32,32S64,145.7,64,128z
	 M502.7,140.9L480,118.3c-12.4-12.4-32.8-12.4-45.3,0L281.1,271.9c11.5,5.8,20.8,12.2,27.7,17.6c5.3,4.2,9.2,7.7,11.3,9.8l11.3,12.7
	c5.4,6.8,11.8,16.2,17.6,27.6l153.5-153.5C515.1,173.7,515.1,153.3,502.7,140.9z M354.3,289.3c-4.8-5.8-8.6-9.9-10.6-11.9
	c-2.3-2.3-6.3-6.1-12-10.7L457.4,141h0.1l22.5,22.5L354.3,289.3z M275.6,458.3c-23.8,23.7-48.4,33-70.7,37.7c-49.6,10.4-96,16-96,16
	s34.7-17.3,33.9-77c-0.4-32.7-3.7-66.4,19.7-89.8c56.6-56.7,113.3,0.2,113.3,0.2S332.5,401.4,275.6,458.3z"/>
</svg>
