<svg xmlns="http://www.w3.org/2000/svg" xmlns:xlink="http://www.w3.org/1999/xlink" width="1920" height="186" viewBox="0 0 1920 186"><defs><style>.a{fill:#5392e4;}.b{clip-path:url(#a);}.c{opacity:0.598;fill:url(#b);}.d{opacity:0.154;fill:url(#c);}.e,.g,.h{fill:none;stroke-linecap:round;}.e{stroke:#0c1121;stroke-width:14.435px;}.e,.g{stroke-linejoin:round;}.f{fill:#0c1121;}.g{stroke:#14254c;stroke-width:32.077px;}.h{stroke:#0c1b38;stroke-miterlimit:10;stroke-width:24.058px;}.i{fill:#22b573;}.j{fill:#0c1b38;}.k{fill:#e9ac6a;}.l{fill:#e26841;}.m{fill:#fff;}.n{fill:#4f5d6c;}</style><clipPath id="a"><path class="a" d="M0,0H1920V96H0Z" transform="translate(-1978 501)"/></clipPath><linearGradient id="b" x1="0.512" y1="0.225" x2="0.483" y2="1.824" gradientUnits="objectBoundingBox"><stop offset="0" stop-color="#68a1ef" stop-opacity="0.306"/><stop offset="1" stop-color="#1b74c1" stop-opacity="0.698"/></linearGradient><linearGradient id="c" x1="0.581" y1="0.251" x2="0.482" y2="1.943" gradientUnits="objectBoundingBox"><stop offset="0" stop-color="#84afff"/><stop offset="1" stop-color="#4494d0" stop-opacity="0.698"/></linearGradient></defs><g transform="translate(1978 -411)"><g class="b"><path class="c" d="M-7439-8733.228c-17.286.01-19.95,4.071-66-15s-290-119-290-119v343h1920v-375s-517.12,278.469-551,298c-43.05,24.816-68.486,23.518-117,8s-342.527-114.609-373-124-43.164-15.948-74-16S-7421.714-8733.236-7439-8733.228Z" transform="translate(5817 9121.228)"/><path class="d" d="M-7792-8570.228s241.323-179.712,282-212,69.827-29.293,96-30,419,0,419,0,32.147-2.659,70,10,346,103,346,103,37.566,11.724,76-9,158.33-89.009,197-108,54.464-14.72,121-8,313,28,313,28v246H-7792Z" transform="translate(5814 9323.228)"/></g><g transform="translate(-2130.366 -1478.335)"><path class="e" d="M1386.443,2064.562c2.159,8.72,4.842,17.279,7,26" transform="translate(-6.578 -48.726)"/><path class="f" d="M1391.367,2099.453c.18,3.071-1.923,6.038-5,6h-20a3.3,3.3,0,0,1-3-3c-.277-1.787.213-2.724,2-3l10-3,10-1c3.165-.651,5.811.773,6,4Z" transform="translate(0 -57.118)"/><path class="g" d="M1442.85,2042.42c-18.91-25.241-42.315-33-52-26-10.422,7.535-5.387,31.389-5,33" transform="translate(-5.983 -34.585)"/><path class="h" d="M1445.98,1970.03c-19.343-2.41-36.16,11.952-36,28,.135,13.588,12.925,26.3,29,28" transform="translate(-13.115 -22.195)"/><path class="h" d="M1483.531,1970.03c19.342-2.41,35.159,11.952,35,28-.135,13.588-11.925,26.3-28,28" transform="translate(-33.666 -22.195)"/><path d="M1491.008,2002.395l1-23c.545-14.949-13.336-27.135-28-25h0c-14.238,2.073-23.012,17.042-19,31l7,22a19.26,19.26,0,0,0,21,14h0A19.851,19.851,0,0,0,1491.008,2002.395Z" transform="translate(-22.642 -18.059)"/><path class="f" d="M1432.615,2085.68c-2.52-1.765-6.418-.639-8,2l-1,1-9,16a3.141,3.141,0,0,0,1,4c1.375,1.174,2.826,1.375,4,0l7-8,6-7c2.216-2.353,2.646-6.146,0-8Z" transform="translate(-14.249 -54.344)"/><path class="e" d="M1480.7,2088.044c-5.349.59-11.408.545-17,1-10.242.833-20.471,1.719-30,2" transform="translate(-19.83 -55.209)"/><path class="g" d="M1486.773,2047.991c4.152-.142,9.926,1.042,17,2,9.877,1.338,15.991,1.192,20,5,3.821,3.629,6.308,10.51,5,15-4.053,13.921-50.857,10.3-55,10" transform="translate(-30.908 -44.156)"/><rect class="i" width="38.465" height="12.859" transform="matrix(-0.988, 0.157, -0.157, -0.988, 1470.458, 1996.691)"/><g transform="translate(1429.676 1889.764)"><g transform="translate(20.472 0)"><path class="i" d="M1491.2,1928.534c5.257-2.075,9.631-1.479,12-2,4.359-.956,9.269-7.1,13-27-3.095-.881-5.906-1.12-9-2-.69,15.627-4.154,21.069-8,23-1.75.878-4.865,1.757-8,4a22.009,22.009,0,0,0-7,9C1485.738,1932.24,1487.912,1929.834,1491.2,1928.534Z" transform="translate(-1483.983 -1891.963)"/><path class="i" d="M1503,1893.335l-8-4c1.344,10.992-1.4,17.346-4,21-1.8,2.522-4.319,4.625-6,9a17.1,17.1,0,0,0-1,10c.982-2.666,3.691-5.681,7-9,3.016-3.025,4.292-4.518,6-6C1500.215,1911.543,1504.23,1906.8,1503,1893.335Z" transform="translate(-1483.777 -1889.764)"/></g><g transform="translate(0 29.452)"><path class="j" d="M1471.125,1930.766h-2c-8.174.272-13.8,7.861-13,16l1,15c.732,7.422,6.547,13.247,14,13h0a14.727,14.727,0,0,0,14-14l1-15A14.8,14.8,0,0,0,1471.125,1930.766Z" transform="translate(-1455.435 -1930.647)"/><rect class="i" width="30.292" height="7.536" transform="matrix(-0.999, 0.033, -0.033, -0.999, 30.525, 22.651)"/><rect class="k" width="26.403" height="7.741" rx="3.87" transform="matrix(-0.999, 0.033, -0.033, -0.999, 28.497, 26.735)"/><path class="l" d="M1473.092,1965.728h3v-6Z" transform="translate(-1460.401 -1938.609)"/><g transform="translate(4.508 22.872)"><rect class="m" width="4.062" height="2.158" rx="1.079" transform="translate(4.131 2.706) rotate(178.1)"/><rect class="m" width="4.062" height="2.158" rx="1.079" transform="translate(20.676 2.157) rotate(178.1)"/></g><ellipse cx="1" cy="0.5" rx="1" ry="0.5" transform="translate(5.69 25.119)"/><ellipse cx="0.5" cy="1" rx="0.5" ry="1" transform="translate(22.69 24.119)"/></g></g><g transform="translate(1413.148 1978.144)"><g transform="translate(0 0)"><rect class="n" width="68" height="49" transform="translate(0.218 0.191)"/><rect width="68" height="4" transform="translate(0.218 48.191)"/></g><path class="m" d="M1480.072,2043.111l-3-3-1,3-3,2,3,1,3,3,1-3,3-2Zm-2,2c-.331-.04-1.04-.669-1-1s.669-.04,1,0,1.04-.332,1,0S1478.4,2045.151,1478.072,2045.111Z" transform="translate(-1443.853 -2019.92)"/></g></g></g></svg>