<?xml version="1.0" encoding="utf-8"?>
<!-- Generator: Adobe Illustrator 19.2.1, SVG Export Plug-In . SVG Version: 6.00 Build 0)  -->
<svg version="1.1" xmlns="http://www.w3.org/2000/svg" xmlns:xlink="http://www.w3.org/1999/xlink" x="0px" y="0px"
	 viewBox="0 0 512 512" style="enable-background:new 0 0 512 512;" xml:space="preserve" width="20" height="20">
<style type="text/css">
	.st0{fill:#010101;}
</style>
<path class="st0" d="M365.3,320h-22.7l-26.7-26.7C338.5,265.7,352,230.4,352,192c0-88.4-71.6-160-160-160S32,103.6,32,192
	s71.6,160,160,160c38.4,0,73.7-13.5,101.3-36.1l26.7,26.7v22.7L434.7,480l45.3-45.3L365.3,320z M64,192c0-70.7,57.3-128,128-128
	s128,57.3,128,128s-57.3,128-128,128S64,262.7,64,192z"/>
</svg>
